# xmcd CD database file
#
# Track frame offsets:
#	182
#	14749
#	30032
#	41698
#	54829
#	65983
#	78115
#	92142
#	105313
#	118520
#	130459
#	144669
#	157522
#	170807
#	184777
#	193025
#	200726
#	212130
#	226599
#	238221
#	252050
#	264319
#	277442
#
# Disc length: 3854 seconds
#
# Revision: 0
# Processed by: cddbd v1.5.1PL0 Copyright (c) Steve Scherf et al.
# Submitted via: CDex 1.51
#
DISCID=450f0c17
DTITLE=Big Joe Turner - 1946-1947
DYEAR=1998
DGENRE=Jazz
TTITLE0=My Gal'S A Jockey
TTITLE1=I'm Still In The Dark
TTITLE2=I Got Love For Sale
TTITLE3=Sunday Morning Blues
TTITLE4=Mad Blues
TTITLE5=It'S A Lowdown Dirty Shame (Playboy Blues)
TTITLE6=I'm Still In The Dark
TTITLE7=Miss Brown Blues
TTITLE8=Sally Zu-Zaz
TTITLE9=Rock O' Gibraltar
TTITLE10=Milk And Butter Blues
TTITLE11=That'S What Really Hurts
TTITLE12=I'm In Sharp When I Hit The Coast
TTITLE13=New Ooh Wee Baby Blues
TTITLE14=Around The Clock Blues-Part 1
TTITLE15=Around The Clock Blues-Part 2
TTITLE16=Morning Glory
TTITLE17=Nobody In Mind
TTITLE18=Low Down Dog
TTITLE19=Back Breaking Blues
TTITLE20=Empty Pocket Blues
TTITLE21=Roll 'Em Pete
TTITLE22=Ice Man Blues
EXTD=YEAR: 1998
EXTT0=
EXTT1=
EXTT2=
EXTT3=
EXTT4=
EXTT5=
EXTT6=
EXTT7=
EXTT8=
EXTT9=
EXTT10=
EXTT11=
EXTT12=
EXTT13=
EXTT14=
EXTT15=
EXTT16=
EXTT17=
EXTT18=
EXTT19=
EXTT20=
EXTT21=
EXTT22=
PLAYORDER=
